<svg width="24" height="24" viewBox="0 0 24 24" fill="none" xmlns="http://www.w3.org/2000/svg"><path d="M8.48086 14.6128C9.0143 14.4698 9.56348 14.7864 9.70644 15.3198L10.0453 16.5883C10.188 17.1217 9.87163 17.67 9.33828 17.813L8.0707 18.1528C7.53727 18.2957 6.98902 17.9782 6.84609 17.4448L6.50625 16.1772C6.3634 15.6438 6.67989 15.0956 7.21328 14.9526L8.48086 14.6128Z" fill="currentColor"/><path d="M14.8187 15.2016C15.1131 15.1229 15.4155 15.297 15.4945 15.5913C15.5734 15.8858 15.3984 16.1891 15.1039 16.268L11.3715 17.268C11.077 17.347 10.7736 17.1719 10.6947 16.8774C10.616 16.583 10.7909 16.2805 11.0853 16.2016L14.8187 15.2016Z" fill="currentColor"/><path d="M14.2465 13.0678C14.541 12.9889 14.8443 13.1639 14.9232 13.4585C15.002 13.7529 14.827 14.0553 14.5326 14.1342L10.7992 15.1352C10.5049 15.2139 10.2024 15.0389 10.1234 14.7446C10.0445 14.4501 10.2195 14.1468 10.5141 14.0678L14.2465 13.0678Z" fill="currentColor"/><path d="M9.94082 11.935C10.2353 11.8561 10.5387 12.0311 10.6176 12.3257C10.6964 12.6201 10.5213 12.9224 10.2269 13.0014L6.49355 14.0024C6.19917 14.0811 5.89671 13.9061 5.81777 13.6118C5.73885 13.3173 5.91387 13.0139 6.20839 12.935L9.94082 11.935Z" fill="currentColor"/><path d="M12.6713 8.91745C13.2046 8.77474 13.7529 9.0912 13.8959 9.62448L14.2357 10.893C14.3783 11.4262 14.0618 11.9746 13.5287 12.1176L12.2602 12.4575C11.7268 12.6002 11.1784 12.2828 11.0355 11.7495L10.6957 10.4819C10.5529 9.9486 10.8695 9.40035 11.4027 9.25729L12.6713 8.91745Z" fill="currentColor"/><path d="M9.36953 9.80221C9.66405 9.72329 9.96639 9.89831 10.0453 10.1928C10.1241 10.4872 9.94992 10.7896 9.65566 10.8686L5.92226 11.8686C5.62786 11.9475 5.32556 11.7733 5.24648 11.479C5.16759 11.1845 5.34177 10.8812 5.63613 10.8022L9.36953 9.80221Z" fill="currentColor"/><path fill-rule="evenodd" clip-rule="evenodd" d="M11.8559 6.2778C13.623 5.80437 15.439 6.85344 15.9125 8.62057L17.6273 15.02C18.1008 16.7871 17.0526 18.604 15.2855 19.0776L8.88613 20.7915C7.11901 21.265 5.30208 20.2168 4.82851 18.4497L3.11367 12.0503C2.64016 10.2831 3.68928 8.46616 5.45644 7.99264L11.8559 6.2778ZM14.8461 8.9067C14.5305 7.72875 13.3199 7.02886 12.142 7.3442L5.74257 9.05905C4.56452 9.37471 3.8645 10.5861 4.18007 11.7641L5.89492 18.1635C6.21059 19.3417 7.42189 20.0407 8.6 19.7251L14.9994 18.0102C16.1774 17.6946 16.8764 16.4841 16.5609 15.3061L14.8461 8.9067Z" fill="currentColor"/><path d="M6.31484 5.76999C6.94328 3.8249 8.99367 2.69255 10.9906 3.22702L17.39 4.94186C19.4514 5.49435 20.6758 7.61451 20.1234 9.67624L18.5658 15.4878L18.142 14.1928L17.9184 13.6401L19.057 9.3901C19.4515 7.91764 18.5766 6.40292 17.1039 6.00827L10.7055 4.29342C9.2332 3.89926 7.71923 4.77404 7.32461 6.24655L7.26992 6.44772L6.0375 6.7778L6.25722 5.96139L6.31484 5.76999Z" fill="currentColor"/></svg>